<svg width="144" height="89" viewBox="0 0 144 89" fill="none" xmlns="http://www.w3.org/2000/svg">
<path d="M26.5 0L1 41H52L26.5 0Z" fill="#E4E4E4"/>
<rect x="57" width="40" height="41" fill="#D2D2D2"/>
<circle cx="122.5" cy="20.5" r="20.5" fill="#E4E4E4"/>
<path d="M21.6729 81H16.8389L7.42871 65.5635V81H2.59473V57.5391H7.42871L16.855 73.0078V57.5391H21.6729V81ZM24.8633 72.1216C24.8633 70.3921 25.1963 68.8506 25.8623 67.4971C26.5283 66.1436 27.4844 65.0962 28.7305 64.355C29.9873 63.6138 31.4429 63.2432 33.0972 63.2432C35.4497 63.2432 37.3672 63.9629 38.8496 65.4023C40.3428 66.8418 41.1753 68.7969 41.3472 71.2676L41.3794 72.46C41.3794 75.1348 40.6328 77.2832 39.1396 78.9053C37.6465 80.5166 35.6431 81.3223 33.1294 81.3223C30.6157 81.3223 28.6069 80.5166 27.103 78.9053C25.6099 77.2939 24.8633 75.1025 24.8633 72.3311V72.1216ZM29.52 72.46C29.52 74.1143 29.8315 75.3818 30.4546 76.2627C31.0776 77.1328 31.9692 77.5679 33.1294 77.5679C34.2573 77.5679 35.1382 77.1382 35.772 76.2788C36.4058 75.4087 36.7227 74.0229 36.7227 72.1216C36.7227 70.4995 36.4058 69.2427 35.772 68.3511C35.1382 67.4595 34.2466 67.0137 33.0972 67.0137C31.9585 67.0137 31.0776 67.4595 30.4546 68.3511C29.8315 69.2319 29.52 70.6016 29.52 72.46ZM57.9116 81H53.0776V57.5391H57.9116V81ZM66.4678 63.5654L66.6128 65.5151C67.8481 64.0005 69.5186 63.2432 71.624 63.2432C73.8691 63.2432 75.4106 64.1294 76.2485 65.9019C77.4731 64.1294 79.2188 63.2432 81.4854 63.2432C83.376 63.2432 84.7832 63.7964 85.707 64.9028C86.6309 65.9985 87.0928 67.6528 87.0928 69.8657V81H82.4199V69.8818C82.4199 68.8936 82.2266 68.1738 81.8398 67.7227C81.4531 67.2607 80.771 67.0298 79.7935 67.0298C78.397 67.0298 77.4302 67.6958 76.8931 69.0278L76.9092 81H72.2524V69.8979C72.2524 68.8882 72.0537 68.1577 71.6562 67.7065C71.2588 67.2554 70.582 67.0298 69.626 67.0298C68.3047 67.0298 67.3486 67.5776 66.7578 68.6733V81H62.1011V63.5654H66.4678ZM100.789 81C100.574 80.5811 100.418 80.0601 100.322 79.437C99.1938 80.6938 97.7275 81.3223 95.9229 81.3223C94.2148 81.3223 92.7969 80.8281 91.6689 79.8398C90.5518 78.8516 89.9932 77.6055 89.9932 76.1016C89.9932 74.2539 90.6753 72.8359 92.0396 71.8477C93.4146 70.8594 95.3965 70.3599 97.9854 70.3491H100.128V69.3501C100.128 68.5444 99.9189 67.8999 99.5 67.4165C99.0918 66.9331 98.4419 66.6914 97.5503 66.6914C96.7661 66.6914 96.1484 66.8794 95.6973 67.2554C95.2568 67.6313 95.0366 68.147 95.0366 68.8022H90.3799C90.3799 67.7925 90.6914 66.8579 91.3145 65.9985C91.9375 65.1392 92.8184 64.4678 93.957 63.9844C95.0957 63.4902 96.374 63.2432 97.792 63.2432C99.9404 63.2432 101.643 63.7856 102.9 64.8706C104.167 65.9448 104.801 67.4595 104.801 69.4146V76.9717C104.812 78.626 105.043 79.8774 105.494 80.7261V81H100.789ZM96.938 77.7612C97.6255 77.7612 98.2593 77.6108 98.8394 77.3101C99.4194 76.9985 99.8491 76.585 100.128 76.0693V73.0723H98.3882C96.0571 73.0723 94.8164 73.8779 94.666 75.4893L94.6499 75.7632C94.6499 76.3433 94.854 76.8213 95.2622 77.1973C95.6704 77.5732 96.229 77.7612 96.938 77.7612ZM107.702 72.1538C107.702 69.479 108.335 67.3252 109.603 65.6924C110.881 64.0596 112.6 63.2432 114.759 63.2432C116.671 63.2432 118.159 63.8984 119.223 65.209L119.416 63.5654H123.638V80.4199C123.638 81.9453 123.289 83.272 122.59 84.3999C121.903 85.5278 120.931 86.3872 119.674 86.978C118.417 87.5688 116.945 87.8643 115.259 87.8643C113.98 87.8643 112.734 87.6064 111.521 87.0908C110.307 86.5859 109.388 85.9307 108.765 85.125L110.828 82.2891C111.988 83.5889 113.395 84.2388 115.049 84.2388C116.285 84.2388 117.246 83.9058 117.934 83.2397C118.621 82.5845 118.965 81.6499 118.965 80.436V79.5015C117.891 80.7153 116.478 81.3223 114.727 81.3223C112.632 81.3223 110.935 80.5059 109.635 78.873C108.346 77.2295 107.702 75.0542 107.702 72.3472V72.1538ZM112.358 72.4922C112.358 74.0713 112.675 75.312 113.309 76.2144C113.943 77.106 114.813 77.5518 115.919 77.5518C117.337 77.5518 118.353 77.02 118.965 75.9565V68.625C118.342 67.5615 117.337 67.0298 115.952 67.0298C114.834 67.0298 113.954 67.4863 113.309 68.3994C112.675 69.3125 112.358 70.6768 112.358 72.4922ZM135.255 81.3223C132.699 81.3223 130.615 80.5381 129.003 78.9697C127.403 77.4014 126.603 75.312 126.603 72.7017V72.2505C126.603 70.4995 126.941 68.9365 127.618 67.5615C128.294 66.1758 129.25 65.1123 130.486 64.3711C131.732 63.6191 133.15 63.2432 134.74 63.2432C137.125 63.2432 138.999 63.9951 140.363 65.499C141.738 67.0029 142.426 69.1353 142.426 71.896V73.7974H131.324C131.474 74.936 131.925 75.8491 132.677 76.5366C133.44 77.2241 134.401 77.5679 135.562 77.5679C137.355 77.5679 138.757 76.918 139.767 75.6182L142.055 78.1802C141.357 79.1685 140.412 79.9419 139.219 80.5005C138.027 81.0483 136.706 81.3223 135.255 81.3223ZM134.724 67.0137C133.8 67.0137 133.048 67.3252 132.468 67.9482C131.898 68.5713 131.533 69.4629 131.372 70.623H137.85V70.2524C137.828 69.2212 137.549 68.4263 137.012 67.8677C136.475 67.2983 135.712 67.0137 134.724 67.0137Z" fill="#E4E4E4"/>
</svg>
